<svg xmlns="http://www.w3.org/2000/svg" width="113.351" height="71.213" viewBox="0 0 113.351 71.213"><g transform="translate(-157.325 -65.787)"><path d="M109.193,402.843c.438.6,3.593.931,3.52,1.629a26.636,26.636,0,0,0,5.51,7.912,25.489,25.489,0,0,0,17.847,7.288,26.463,26.463,0,0,0,4.988-.485,37.716,37.716,0,0,0,5.441-1.523l1.3-.453V402.181q-4.859,5.183-10.947,5.181a12.974,12.974,0,0,1-9.361-3.887A13.025,13.025,0,0,1,124.7,399.2a14.087,14.087,0,0,1-1-5.377,13.923,13.923,0,0,1,1-5.311,12.656,12.656,0,0,1,6.931-7.062,13.338,13.338,0,0,1,5.279-1.037,13.553,13.553,0,0,1,10.883,5.377l.23-11.028c-15.281,1.892-27.212,8.671-36.8,15.379-.165,1.215-.805,2.329-.805,3.617,0,.052-.727.617-.727.667,1.373,8.359-1.691,6.794-.5,8.417m-17.37,5.179a94.238,94.238,0,0,0-6.692,9.547,29.043,29.043,0,0,0,8.787,1.338,24.809,24.809,0,0,0,8-1.2,17.01,17.01,0,0,0,5.96-3.369,14.183,14.183,0,0,0,3.692-5.214,16.621,16.621,0,0,0,1.142-4.653c-.05-.107,1.2-.372,1.147-.481-1.406-3.131-3.42-6.381-3.439-10.08-.152-.21-.3-.424-.469-.625a11.573,11.573,0,0,0-1.364-1.67,89.715,89.715,0,0,0-10.124,8.939,3.019,3.019,0,0,1,.637,1.024,4.416,4.416,0,0,1-1.134,5.151,6.573,6.573,0,0,1-4.632,1.425,10.73,10.73,0,0,1-1.513-.131" transform="translate(101.943 -302.013)" fill="#008b74"/><path d="M107.27,378.544a72.125,72.125,0,0,1,35.519-11.667v-1.72a34.768,34.768,0,0,0-5.927-1.911,26.788,26.788,0,0,0-5.733-.615,25.654,25.654,0,0,0-23.612,15.32c-.087.2-.164.4-.246.593M99.988,384a28.678,28.678,0,0,0-4.144-1.726q-1.555-.518-3.142-.972a17.338,17.338,0,0,1-2.85-1.069,6.754,6.754,0,0,1-2.041-1.458,3.024,3.024,0,0,1-.777-2.137,3.634,3.634,0,0,1,1.555-3.045,6.512,6.512,0,0,1,4.016-1.166,11.022,11.022,0,0,1,4.016.81,15.723,15.723,0,0,1,4.146,2.494l5.053-9.912a33.526,33.526,0,0,0-7.579-2.947,30.8,30.8,0,0,0-7.579-1,20.077,20.077,0,0,0-7.029,1.166,15.013,15.013,0,0,0-5.312,3.271,14.6,14.6,0,0,0-3.369,5.053,17.3,17.3,0,0,0-1.2,6.575,13.848,13.848,0,0,0,1.134,5.992,11.578,11.578,0,0,0,2.98,3.919,15.149,15.149,0,0,0,4.211,2.493q2.364.941,4.826,1.717,2.072.713,3.531,1.3c.045.019.084.038.128.056A82,82,0,0,1,99.988,384" transform="translate(107.179 -296.078)" fill="#3a3939"/><path d="M75.188,441.755a89.956,89.956,0,0,1,5.562-9.584c-.43-.146-.86-.31-1.292-.5a22.021,22.021,0,0,1-5.636-3.757l-5.441,10.235a31.327,31.327,0,0,0,6.807,3.607" transform="translate(109.651 -326.471)" fill="#3a3939"/><path d="M355.963,406.989h2.158V405.86H352.47v1.129h2.169v7.034h1.324Zm-4.282.857.068-1.335a4.459,4.459,0,0,0-2.638-.844,4.29,4.29,0,0,0-3.094,1.22,4.432,4.432,0,0,0-.011,6.144,4.336,4.336,0,0,0,3.128,1.208,4.225,4.225,0,0,0,2.535-.763v-1.5a3.944,3.944,0,0,1-2.638,1.027,2.864,2.864,0,0,1-2.876-3.037,2.907,2.907,0,0,1,3.014-3.084,3.778,3.778,0,0,1,2.512.959m-12.627,6.177h4.554v-1.186h-3.23V410.2h3.23v-1.162h-3.23v-2.046h3.23V405.86h-4.554Zm-9.167,0h1.22v-5.674a6.556,6.556,0,0,0,.787.913l5.287,5.08V405.86h-1.221v5.663a10.011,10.011,0,0,0-.891-.993l-5.182-4.989Zm-9.169,0h1.22v-5.674a6.654,6.654,0,0,0,.789.913l5.286,5.08V405.86h-1.221v5.663a10.269,10.269,0,0,0-.89-.993l-5.184-4.989Zm-2.9-4.064a3.04,3.04,0,0,1-.878,2.157,2.937,2.937,0,0,1-4.214,0,3.129,3.129,0,0,1,0-4.328,2.934,2.934,0,0,1,2.112-.891,2.891,2.891,0,0,1,2.1.891,3.067,3.067,0,0,1,.878,2.171m1.38,0a4.211,4.211,0,0,0-1.277-3.039,4.46,4.46,0,0,0-6.178,0,4.179,4.179,0,0,0-1.266,3.039,4.137,4.137,0,0,0,1.266,3.026,4.433,4.433,0,0,0,6.178,0,4.15,4.15,0,0,0,1.277-3.026m-10.012-2.113.069-1.335a4.461,4.461,0,0,0-2.638-.844,4.294,4.294,0,0,0-3.094,1.22,4.432,4.432,0,0,0-.011,6.144,4.338,4.338,0,0,0,3.129,1.208,4.223,4.223,0,0,0,2.534-.763v-1.5a3.944,3.944,0,0,1-2.638,1.027,2.864,2.864,0,0,1-2.877-3.037,2.908,2.908,0,0,1,3.014-3.084,3.776,3.776,0,0,1,2.512.959m-15.07,1.5V407h.239c1.189,0,1.748.217,1.748,1.222,0,.983-.583,1.121-1.748,1.121Zm-.08,1.025h.149l2.718,3.654H298.4l-2.808-3.711a1.962,1.962,0,0,0,1.872-2.2,2.232,2.232,0,0,0-.787-1.793,3.19,3.19,0,0,0-2.033-.457h-1.848v8.163h1.243Zm-4.143-.409a3.04,3.04,0,0,1-.88,2.157,2.937,2.937,0,0,1-4.213,0,3.131,3.131,0,0,1,0-4.328,2.936,2.936,0,0,1,2.112-.891,2.891,2.891,0,0,1,2.1.891,3.067,3.067,0,0,1,.88,2.171m1.38,0a4.209,4.209,0,0,0-1.277-3.039,4.46,4.46,0,0,0-6.178,0,4.178,4.178,0,0,0-1.266,3.039,4.136,4.136,0,0,0,1.266,3.026,4.433,4.433,0,0,0,6.178,0,4.148,4.148,0,0,0,1.277-3.026m-15.1,2.432a2.376,2.376,0,0,0,2.579,1.848,2.436,2.436,0,0,0,2.705-2.521c0-1.177-.673-1.758-2.111-2.422-.914-.423-1.553-.662-1.553-1.45a1.031,1.031,0,0,1,1.165-1.028,1.366,1.366,0,0,1,1.211.742l1.038-.536a2.261,2.261,0,0,0-2.351-1.346,2.231,2.231,0,0,0-2.454,2.236c0,1.233.8,1.782,2.248,2.489.845.412,1.451.606,1.451,1.4a1.168,1.168,0,0,1-1.291,1.212,1.468,1.468,0,0,1-1.576-1.12Zm-8.7,1.632h1.22v-5.674a6.581,6.581,0,0,0,.789.913l5.286,5.08V405.86h-1.221v5.663a10.2,10.2,0,0,0-.891-.993l-5.183-4.989Zm-2.9-4.064a3.039,3.039,0,0,1-.879,2.157,2.938,2.938,0,0,1-4.214,0,3.13,3.13,0,0,1,0-4.328,2.936,2.936,0,0,1,2.113-.891,2.891,2.891,0,0,1,2.1.891,3.067,3.067,0,0,1,.879,2.171m1.38,0a4.21,4.21,0,0,0-1.277-3.039,4.46,4.46,0,0,0-6.178,0,4.177,4.177,0,0,0-1.266,3.039,4.135,4.135,0,0,0,1.266,3.026,4.433,4.433,0,0,0,6.178,0,4.149,4.149,0,0,0,1.277-3.026m-13.118-.685V407h.343c1.234,0,1.84.2,1.84,1.188,0,.949-.617,1.086-1.84,1.086Zm-.08,1.082h.765a3.389,3.389,0,0,0,2.044-.41,2.248,2.248,0,0,0,.821-1.837,2.226,2.226,0,0,0-.821-1.826,3.3,3.3,0,0,0-2.044-.423h-2.008v8.163h1.243Zm-7.98,2.034a2.375,2.375,0,0,0,2.579,1.848,2.436,2.436,0,0,0,2.705-2.521c0-1.177-.673-1.758-2.111-2.422-.914-.423-1.553-.662-1.553-1.45a1.031,1.031,0,0,1,1.165-1.028,1.366,1.366,0,0,1,1.211.742l1.037-.536a2.261,2.261,0,0,0-2.351-1.346A2.231,2.231,0,0,0,245,407.915c0,1.233.8,1.782,2.248,2.489.845.412,1.451.606,1.451,1.4a1.168,1.168,0,0,1-1.291,1.212,1.469,1.469,0,0,1-1.577-1.12Z" transform="translate(-87.445 -277.343)" fill="#3a3939"/></g></svg>