<?xml version="1.0" standalone="no"?>
<!DOCTYPE svg PUBLIC "-//W3C//DTD SVG 20010904//EN"
 "http://www.w3.org/TR/2001/REC-SVG-20010904/DTD/svg10.dtd">
<svg version="1.0" xmlns="http://www.w3.org/2000/svg"
 width="700.000000pt" height="700.000000pt" viewBox="0 0 700.000000 700.000000"
 preserveAspectRatio="xMidYMid meet">
<metadata>
Created by potrace 1.14, written by Peter Selinger 2001-2017
</metadata>
<g transform="translate(0.000000,700.000000) scale(0.100000,-0.100000)"
fill="#000000" stroke="none">
<path d="M1937 5674 c-1 -1 -45 -4 -97 -7 -190 -12 -427 -73 -600 -154 -271
-128 -487 -363 -621 -678 -13 -32 -58 -182 -65 -218 -38 -199 -44 -468 -14
-612 37 -180 79 -286 161 -407 58 -86 98 -127 204 -213 159 -129 304 -198 667
-319 172 -57 362 -127 396 -145 18 -9 27 -3 79 56 192 220 512 540 712 712
l62 55 -28 14 c-96 51 -482 193 -562 207 -53 9 -214 66 -283 100 -192 95 -263
184 -261 323 6 267 292 422 662 357 129 -22 330 -120 470 -228 50 -39 65 -46
72 -36 5 8 30 55 55 104 103 201 300 585 341 664 24 46 42 85 40 87 -4 4 -174
87 -217 107 -192 85 -516 174 -740 203 -25 3 -56 7 -70 10 -48 8 -356 23 -363
18z"/>
<path d="M5359 5616 c-2 -2 -33 -7 -69 -10 -299 -30 -661 -156 -925 -321 -297
-186 -562 -451 -726 -725 -42 -71 -178 -330 -172 -330 2 0 15 8 29 17 14 9 38
24 53 32 15 9 77 46 137 82 393 237 892 461 1341 603 350 110 873 224 1153
251 36 3 76 8 90 10 14 2 63 7 110 11 47 4 99 8 115 10 17 1 42 3 56 3 25 1
25 3 24 69 0 37 -4 72 -7 78 -4 6 -29 19 -55 29 -26 10 -61 23 -78 31 -101 44
-406 123 -544 139 -30 4 -63 9 -75 12 -24 6 -452 14 -457 9z"/>
<path d="M6549 5056 c-2 -2 -29 -6 -59 -9 -58 -6 -179 -23 -220 -32 -13 -2
-42 -7 -65 -10 -22 -4 -56 -10 -75 -15 -19 -5 -51 -12 -70 -15 -249 -43 -845
-224 -1055 -320 -16 -8 -53 -23 -80 -34 -136 -52 -601 -282 -746 -368 -334
-199 -407 -244 -660 -415 l-166 -112 -16 -54 c-9 -29 -26 -102 -38 -161 l-22
-108 -27 31 c-14 17 -39 49 -55 71 -16 22 -39 51 -51 64 -27 30 -18 35 -204
-115 -242 -193 -370 -307 -590 -521 -120 -117 -124 -122 -107 -141 9 -10 28
-46 42 -80 80 -198 -8 -414 -208 -509 -104 -50 -140 -57 -297 -58 l-145 0
-128 -170 c-119 -157 -324 -457 -411 -600 l-36 -60 82 -23 c106 -29 321 -69
418 -77 41 -4 93 -9 115 -11 52 -4 277 -4 335 1 119 9 199 21 343 50 180 36
395 125 546 225 85 56 110 78 211 180 148 149 270 353 320 535 24 86 51 245
43 258 -2 4 -1 7 4 7 4 0 23 -30 42 -68 182 -368 495 -708 846 -922 153 -93
322 -169 500 -224 70 -22 106 -31 200 -52 247 -55 599 -62 845 -18 100 18 301
67 383 94 73 24 260 92 267 98 6 4 7 1282 1 1282 -2 0 -36 -31 -75 -69 -39
-39 -96 -88 -126 -110 -30 -22 -61 -45 -68 -51 -26 -23 -219 -117 -282 -138
-90 -29 -167 -50 -220 -57 -25 -4 -58 -8 -75 -11 -132 -18 -356 6 -498 55
-201 69 -401 216 -528 387 -24 33 -46 61 -49 64 -18 17 -84 153 -114 234 -84
224 -94 517 -26 776 43 168 122 320 230 448 60 70 100 106 212 192 45 35 197
107 293 139 361 122 785 56 1085 -169 68 -50 157 -135 201 -189 18 -23 35 -41
39 -41 4 0 7 19 7 43 0 23 3 191 7 372 13 560 14 535 -5 535 -8 0 -18 -2 -20
-4z"/>
<path d="M711 2504 c-12 -19 -21 -38 -21 -42 0 -4 -11 -24 -25 -45 -14 -20
-24 -37 -21 -37 3 0 -15 -35 -38 -77 -24 -43 -80 -150 -126 -238 -46 -88 -101
-194 -123 -235 -55 -103 -87 -167 -87 -174 0 -14 184 -124 335 -201 178 -90
245 -119 256 -107 5 4 20 30 34 57 107 201 156 289 233 420 69 117 79 134 162
263 29 45 51 84 49 85 -2 2 -24 11 -49 21 -175 72 -348 175 -480 286 -77 65
-75 64 -99 24z"/>
</g>
</svg>
